<svg width="57" height="57" viewBox="0 0 54 70" fill="none" xmlns="http://www.w3.org/2000/svg">
<path d="M3.35948 39.0869C4.10519 40.5668 5.90913 41.1626 7.3887 40.4175C8.86826 39.6725 9.46317 37.8689 8.71746 36.389L3.35948 39.0869ZM5.73066 37.1271L3.05167 38.476L3.05167 38.4761L5.73066 37.1271ZM28.5663 47.5844L28.5649 44.5844L28.5663 47.5844ZM9.14074 45.4628C7.96969 46.6344 7.97055 48.5339 9.14266 49.7055L28.2433 68.7975C29.4154 69.969 31.3149 69.9691 32.4859 68.7975C33.657 67.626 33.6561 65.7265 32.484 64.5549L15.5057 47.5842L32.4687 30.6139C33.6397 29.4424 33.6388 27.5429 32.4667 26.3713C31.2946 25.1997 29.3951 25.1997 28.2241 26.3713L9.14074 45.4628ZM26.3615 3.61827L26.3602 0.618286L26.3601 0.618286L26.3615 3.61827ZM28.5464 3.6183L28.545 0.618311L28.5464 3.6183ZM50.5396 25.6113L47.5395 25.6099L50.5396 25.6113ZM8.71746 36.389L8.40965 35.7781L3.05167 38.4761L3.35948 39.0869L8.71746 36.389ZM28.5649 44.5844L11.2617 44.5842L11.2644 50.5842L28.5676 50.5843L28.5649 44.5844ZM26.3629 6.61826L28.5477 6.61828L28.545 0.618311L26.3602 0.618286L26.3629 6.61826ZM47.5395 25.6099C47.5397 36.0907 39.0458 44.5845 28.5649 44.5844L28.5676 50.5843C42.3612 50.5845 53.5397 39.4061 53.5396 25.6126L47.5395 25.6099ZM53.5396 25.6126C53.5394 11.8106 42.3472 0.618467 28.545 0.618311L28.5477 6.61828C39.0351 6.6184 47.5394 15.1226 47.5395 25.6099L53.5396 25.6126ZM8.40965 35.7781C1.6688 22.4005 11.3857 6.61832 26.3629 6.61826L26.3601 0.618286C6.91539 0.618372 -5.69986 21.1081 3.05167 38.476L8.40965 35.7781Z" fill="#81B29A"/>
</svg>
