<svg width="57" height="57" viewBox="0 0 57 57" fill="none" xmlns="http://www.w3.org/2000/svg">
<g clip-path="url(#clip0_1007_17896)">
<path fill-rule="evenodd" clip-rule="evenodd" d="M28.5 4.75C15.39 4.75 4.75 15.39 4.75 28.5C4.75 41.61 15.39 52.25 28.5 52.25C41.61 52.25 52.25 41.61 52.25 28.5C52.25 15.39 41.61 4.75 28.5 4.75ZM42.75 28.5C42.75 36.3612 36.3612 42.75 28.5 42.75C20.6388 42.75 14.25 36.3612 14.25 28.5H19C19 33.7488 23.2512 38 28.5 38C33.7488 38 38 33.7488 38 28.5C38 23.2512 33.7488 19 28.5 19V26.125L19 16.625L28.5 7.125V14.25C36.3612 14.25 42.75 20.6388 42.75 28.5Z" fill="#81B29A"/>
</g>
<defs>
<clipPath id="clip0_1007_17896">
<rect width="57" height="57" fill="white"/>
</clipPath>
</defs>
</svg>
